<svg width="192" height="192" viewBox="0 0 321 55" fill="none" xmlns="http://www.w3.org/2000/svg">
<path d="M0.208008 3.60001H20.728C26.056 3.60001 30.76 4.68001 34.84 6.84001C38.92 8.95201 42.088 11.928 44.344 15.768C46.6 19.56 47.728 23.904 47.728 28.8C47.728 33.696 46.6 38.064 44.344 41.904C42.088 45.696 38.92 48.672 34.84 50.832C30.76 52.944 26.056 54 20.728 54H0.208008V3.60001ZM20.44 49.392C24.856 49.392 28.72 48.528 32.032 46.8C35.344 45.024 37.912 42.6 39.736 39.528C41.56 36.408 42.472 32.832 42.472 28.8C42.472 24.768 41.56 21.216 39.736 18.144C37.912 15.024 35.344 12.6 32.032 10.872C28.72 9.09601 24.856 8.20801 20.44 8.20801H5.53601V49.392H20.44Z" fill="#2DA8D8"/>
<path d="M71.8604 15.84C76.8044 15.84 80.5964 17.088 83.2364 19.584C85.8764 22.032 87.1964 25.68 87.1964 30.528V54H82.3004V48.096C81.1484 50.064 79.4444 51.6 77.1884 52.704C74.9804 53.808 72.3404 54.36 69.2684 54.36C65.0444 54.36 61.6844 53.352 59.1884 51.336C56.6924 49.32 55.4444 46.656 55.4444 43.344C55.4444 40.128 56.5964 37.536 58.9004 35.568C61.2524 33.6 64.9724 32.616 70.0604 32.616H82.0844V30.312C82.0844 27.048 81.1724 24.576 79.3484 22.896C77.5244 21.168 74.8604 20.304 71.3564 20.304C68.9564 20.304 66.6524 20.712 64.4444 21.528C62.2364 22.296 60.3404 23.376 58.7564 24.768L56.4524 20.952C58.3724 19.32 60.6764 18.072 63.3644 17.208C66.0524 16.296 68.8844 15.84 71.8604 15.84ZM70.0604 50.328C72.9404 50.328 75.4124 49.68 77.4764 48.384C79.5404 47.04 81.0764 45.12 82.0844 42.624V36.432H70.2044C63.7244 36.432 60.4844 38.688 60.4844 43.2C60.4844 45.408 61.3244 47.16 63.0044 48.456C64.6844 49.704 67.0364 50.328 70.0604 50.328Z" fill="#2DA8D8"/>
<path d="M105.977 23.544C107.177 21 108.953 19.08 111.305 17.784C113.705 16.488 116.657 15.84 120.161 15.84V20.808L118.937 20.736C114.953 20.736 111.833 21.96 109.577 24.408C107.321 26.856 106.193 30.288 106.193 34.704V54H101.081V16.128H105.977V23.544Z" fill="#2DA8D8"/>
<path d="M150.072 51.696C149.112 52.56 147.912 53.232 146.472 53.712C145.08 54.144 143.616 54.36 142.08 54.36C138.528 54.36 135.792 53.4 133.872 51.48C131.952 49.56 130.992 46.848 130.992 43.344V20.448H124.224V16.128H130.992V7.84799H136.104V16.128H147.624V20.448H136.104V43.056C136.104 45.312 136.656 47.04 137.76 48.24C138.912 49.392 140.544 49.968 142.656 49.968C143.712 49.968 144.72 49.8 145.68 49.464C146.688 49.128 147.552 48.648 148.272 48.024L150.072 51.696Z" fill="#E5E5E5"/>
<path d="M191.018 36.648H159.338C159.626 40.584 161.138 43.776 163.874 46.224C166.61 48.624 170.066 49.824 174.242 49.824C176.594 49.824 178.754 49.416 180.722 48.6C182.69 47.736 184.394 46.488 185.834 44.856L188.714 48.168C187.034 50.184 184.922 51.72 182.378 52.776C179.882 53.832 177.122 54.36 174.098 54.36C170.21 54.36 166.754 53.544 163.73 51.912C160.754 50.232 158.426 47.928 156.746 45C155.066 42.072 154.226 38.76 154.226 35.064C154.226 31.368 155.018 28.056 156.602 25.128C158.234 22.2 160.442 19.92 163.226 18.288C166.058 16.656 169.226 15.84 172.73 15.84C176.234 15.84 179.378 16.656 182.162 18.288C184.946 19.92 187.13 22.2 188.714 25.128C190.298 28.008 191.09 31.32 191.09 35.064L191.018 36.648ZM172.73 20.232C169.082 20.232 166.01 21.408 163.514 23.76C161.066 26.064 159.674 29.088 159.338 32.832H186.194C185.858 29.088 184.442 26.064 181.946 23.76C179.498 21.408 176.426 20.232 172.73 20.232Z" fill="#E5E5E5"/>
<path d="M217.191 54.36C213.447 54.36 210.087 53.544 207.111 51.912C204.183 50.28 201.879 48 200.199 45.072C198.519 42.096 197.679 38.76 197.679 35.064C197.679 31.368 198.519 28.056 200.199 25.128C201.879 22.2 204.183 19.92 207.111 18.288C210.087 16.656 213.447 15.84 217.191 15.84C220.455 15.84 223.359 16.488 225.903 17.784C228.495 19.032 230.535 20.88 232.023 23.328L228.207 25.92C226.959 24.048 225.375 22.656 223.455 21.744C221.535 20.784 219.447 20.304 217.191 20.304C214.455 20.304 211.983 20.928 209.775 22.176C207.615 23.376 205.911 25.104 204.663 27.36C203.463 29.616 202.863 32.184 202.863 35.064C202.863 37.992 203.463 40.584 204.663 42.84C205.911 45.048 207.615 46.776 209.775 48.024C211.983 49.224 214.455 49.824 217.191 49.824C219.447 49.824 221.535 49.368 223.455 48.456C225.375 47.544 226.959 46.152 228.207 44.28L232.023 46.872C230.535 49.32 228.495 51.192 225.903 52.488C223.311 53.736 220.407 54.36 217.191 54.36Z" fill="#E5E5E5"/>
<path d="M260.799 15.84C265.551 15.84 269.319 17.232 272.103 20.016C274.935 22.752 276.351 26.76 276.351 32.04V54H271.239V32.544C271.239 28.608 270.255 25.608 268.287 23.544C266.319 21.48 263.511 20.448 259.863 20.448C255.783 20.448 252.543 21.672 250.143 24.12C247.791 26.52 246.615 29.856 246.615 34.128V54H241.503V0.575989H246.615V22.752C248.007 20.544 249.927 18.84 252.375 17.64C254.823 16.44 257.631 15.84 260.799 15.84Z" fill="#E5E5E5"/>
<path d="M314.35 54L302.326 38.16L290.23 54H284.47L299.446 34.56L285.19 16.128H290.95L302.326 30.96L313.702 16.128H319.318L305.062 34.56L320.182 54H314.35Z" fill="#E5E5E5"/>
</svg>
